<svg width="13" height="15" viewBox="0 0 13 15" fill="none" xmlns="http://www.w3.org/2000/svg">
<path d="M5.08333 11.7498C5.27119 11.7498 5.45136 11.6752 5.5842 11.5423C5.71704 11.4095 5.79167 11.2293 5.79167 11.0415V6.79149C5.79167 6.60363 5.71704 6.42346 5.5842 6.29062C5.45136 6.15779 5.27119 6.08316 5.08333 6.08316C4.89547 6.08316 4.7153 6.15779 4.58247 6.29062C4.44963 6.42346 4.375 6.60363 4.375 6.79149V11.0415C4.375 11.2293 4.44963 11.4095 4.58247 11.5423C4.7153 11.6752 4.89547 11.7498 5.08333 11.7498ZM12.1667 3.24983H9.33333V2.5415C9.33333 1.97792 9.10945 1.43741 8.71094 1.0389C8.31242 0.640387 7.77192 0.416504 7.20833 0.416504H5.79167C5.22808 0.416504 4.68758 0.640387 4.28906 1.0389C3.89055 1.43741 3.66667 1.97792 3.66667 2.5415V3.24983H0.833333C0.645472 3.24983 0.465304 3.32446 0.332466 3.4573C0.199628 3.59013 0.125 3.7703 0.125 3.95816C0.125 4.14602 0.199628 4.32619 0.332466 4.45903C0.465304 4.59187 0.645472 4.66649 0.833333 4.66649H1.54167V12.4581C1.54167 13.0217 1.76555 13.5622 2.16406 13.9607C2.56258 14.3593 3.10308 14.5831 3.66667 14.5831H9.33333C9.89692 14.5831 10.4374 14.3593 10.8359 13.9607C11.2345 13.5622 11.4583 13.0217 11.4583 12.4581V4.66649H12.1667C12.3545 4.66649 12.5347 4.59187 12.6675 4.45903C12.8004 4.32619 12.875 4.14602 12.875 3.95816C12.875 3.7703 12.8004 3.59013 12.6675 3.4573C12.5347 3.32446 12.3545 3.24983 12.1667 3.24983ZM5.08333 2.5415C5.08333 2.35364 5.15796 2.17347 5.2908 2.04063C5.42364 1.9078 5.6038 1.83317 5.79167 1.83317H7.20833C7.39619 1.83317 7.57636 1.9078 7.7092 2.04063C7.84204 2.17347 7.91667 2.35364 7.91667 2.5415V3.24983H5.08333V2.5415ZM10.0417 12.4581C10.0417 12.646 9.96704 12.8262 9.8342 12.959C9.70136 13.0918 9.52119 13.1665 9.33333 13.1665H3.66667C3.4788 13.1665 3.29864 13.0918 3.1658 12.959C3.03296 12.8262 2.95833 12.646 2.95833 12.4581V4.66649H10.0417V12.4581ZM7.91667 11.7498C8.10453 11.7498 8.2847 11.6752 8.41753 11.5423C8.55037 11.4095 8.625 11.2293 8.625 11.0415V6.79149C8.625 6.60363 8.55037 6.42346 8.41753 6.29062C8.2847 6.15779 8.10453 6.08316 7.91667 6.08316C7.7288 6.08316 7.54864 6.15779 7.4158 6.29062C7.28296 6.42346 7.20833 6.60363 7.20833 6.79149V11.0415C7.20833 11.2293 7.28296 11.4095 7.4158 11.5423C7.54864 11.6752 7.7288 11.7498 7.91667 11.7498Z" fill="white"/>
</svg>
