<svg width="57" height="61" viewBox="0 0 57 61" fill="none" xmlns="http://www.w3.org/2000/svg">
<g filter="url(#filter0_d_2_1101)">
<path d="M42.9461 17.5431C48.7717 20.6223 51.6846 22.1619 52.1831 24.4239C52.3393 25.1328 52.3393 25.8672 52.1831 26.5761C51.6846 28.8381 48.7717 30.3777 42.9461 33.4569L17.9557 46.6658C12.7571 49.4136 10.1578 50.7875 8.0987 50.067C7.44921 49.8398 6.85361 49.4809 6.34919 49.0129C4.75 47.5291 4.75 44.589 4.75 38.7089V12.2911C4.75 6.41098 4.75 3.47093 6.34919 1.98714C6.85361 1.51912 7.44921 1.16025 8.0987 0.932998C10.1578 0.212531 12.7571 1.58641 17.9557 4.33418L42.9461 17.5431Z" fill="white"/>
</g>
<defs>
<filter id="filter0_d_2_1101" x="0.75" y="0.743286" width="55.5502" height="59.5134" filterUnits="userSpaceOnUse" color-interpolation-filters="sRGB">
<feFlood flood-opacity="0" result="BackgroundImageFix"/>
<feColorMatrix in="SourceAlpha" type="matrix" values="0 0 0 0 0 0 0 0 0 0 0 0 0 0 0 0 0 0 127 0" result="hardAlpha"/>
<feOffset dy="6"/>
<feGaussianBlur stdDeviation="2"/>
<feComposite in2="hardAlpha" operator="out"/>
<feColorMatrix type="matrix" values="0 0 0 0 0.701961 0 0 0 0 0.556863 0 0 0 0 0.0980392 0 0 0 0.7 0"/>
<feBlend mode="normal" in2="BackgroundImageFix" result="effect1_dropShadow_2_1101"/>
<feBlend mode="normal" in="SourceGraphic" in2="effect1_dropShadow_2_1101" result="shape"/>
</filter>
</defs>
</svg>
