<svg width="57" height="61" viewBox="0 0 57 61" fill="none" xmlns="http://www.w3.org/2000/svg">
<g filter="url(#filter0_d_2_1233)">
<path d="M14.0539 17.5431C8.22826 20.6223 5.31544 22.1619 4.81694 24.4239C4.66072 25.1328 4.66072 25.8672 4.81694 26.5761C5.31544 28.8381 8.22826 30.3777 14.0539 33.4569L39.0443 46.6658C44.2429 49.4136 46.8422 50.7875 48.9013 50.067C49.5508 49.8398 50.1464 49.4809 50.6508 49.0129C52.25 47.5291 52.25 44.589 52.25 38.7089V12.2911C52.25 6.41098 52.25 3.47093 50.6508 1.98714C50.1464 1.51912 49.5508 1.16025 48.9013 0.932998C46.8422 0.212531 44.2429 1.58641 39.0443 4.33418L14.0539 17.5431Z" fill="white"/>
</g>
<defs>
<filter id="filter0_d_2_1233" x="0.699829" y="0.743164" width="55.5502" height="59.5137" filterUnits="userSpaceOnUse" color-interpolation-filters="sRGB">
<feFlood flood-opacity="0" result="BackgroundImageFix"/>
<feColorMatrix in="SourceAlpha" type="matrix" values="0 0 0 0 0 0 0 0 0 0 0 0 0 0 0 0 0 0 127 0" result="hardAlpha"/>
<feOffset dy="6"/>
<feGaussianBlur stdDeviation="2"/>
<feComposite in2="hardAlpha" operator="out"/>
<feColorMatrix type="matrix" values="0 0 0 0 0.701961 0 0 0 0 0.556863 0 0 0 0 0.0980392 0 0 0 0.7 0"/>
<feBlend mode="normal" in2="BackgroundImageFix" result="effect1_dropShadow_2_1233"/>
<feBlend mode="normal" in="SourceGraphic" in2="effect1_dropShadow_2_1233" result="shape"/>
</filter>
</defs>
</svg>
