<svg width="36" height="25" viewBox="0 0 36 25" fill="none" xmlns="http://www.w3.org/2000/svg">
<g filter="url(#filter0_i_2_1945)">
<path d="M-8.74228e-07 5C-3.91405e-07 2.23858 2.23858 3.91405e-07 5 8.74228e-07L31 5.42021e-06C33.7614 5.90304e-06 36 2.23858 36 5.00001L36 20C36 22.7614 33.7614 25 31 25L4.99999 25C2.23857 25 -3.97973e-06 22.7614 -3.49691e-06 20L-8.74228e-07 5Z" fill="white"/>
</g>
<path d="M5 1L31 1.00001C33.2091 1.00001 35 2.79087 35 5.00001L35 20C35 22.2091 33.2091 24 31 24L4.99999 24C2.79086 24 0.999996 22.2091 0.999997 20L0.999999 5C1 2.79086 2.79086 1 5 1Z" stroke="black" stroke-opacity="0.15" stroke-width="2"/>
<defs>
<filter id="filter0_i_2_1945" x="0" y="0" width="36" height="28" filterUnits="userSpaceOnUse" color-interpolation-filters="sRGB">
<feFlood flood-opacity="0" result="BackgroundImageFix"/>
<feBlend mode="normal" in="SourceGraphic" in2="BackgroundImageFix" result="shape"/>
<feColorMatrix in="SourceAlpha" type="matrix" values="0 0 0 0 0 0 0 0 0 0 0 0 0 0 0 0 0 0 127 0" result="hardAlpha"/>
<feOffset dy="3"/>
<feGaussianBlur stdDeviation="2"/>
<feComposite in2="hardAlpha" operator="arithmetic" k2="-1" k3="1"/>
<feColorMatrix type="matrix" values="0 0 0 0 0 0 0 0 0 0 0 0 0 0 0 0 0 0 0.25 0"/>
<feBlend mode="normal" in2="shape" result="effect1_innerShadow_2_1945"/>
</filter>
</defs>
</svg>
