<svg width="28" height="25" viewBox="0 0 28 25" fill="none" xmlns="http://www.w3.org/2000/svg">
<path d="M8.42026 6.47481C8.20315 6.47481 7.99092 6.53369 7.8104 6.64399C7.62988 6.7543 7.48918 6.91109 7.4061 7.09453C7.32301 7.27796 7.30128 7.47981 7.34363 7.67455C7.38599 7.86928 7.49054 8.04816 7.64405 8.18856C7.79757 8.32895 7.99317 8.42456 8.2061 8.4633C8.41904 8.50204 8.63976 8.48215 8.84034 8.40617C9.04092 8.33019 9.21236 8.20152 9.33298 8.03643C9.4536 7.87134 9.51798 7.67725 9.51798 7.4787C9.51798 7.21245 9.40233 6.95711 9.19646 6.76884C8.9906 6.58057 8.71139 6.47481 8.42026 6.47481ZM24.5677 12.2773L14.1613 2.78049C14.059 2.67956 13.935 2.59896 13.7972 2.5437C13.6593 2.48843 13.5105 2.45969 13.36 2.45925H6.77368C6.62921 2.45848 6.486 2.4838 6.35226 2.53376C6.21851 2.58372 6.09687 2.65733 5.9943 2.75037L3.25 5.25006C3.14826 5.34387 3.06777 5.45511 3.01314 5.57742C2.95851 5.69973 2.93082 5.8307 2.93166 5.96282V11.9862C2.9357 12.252 3.04941 12.5066 3.25 12.6989L13.6674 22.2359C13.8777 22.4193 14.1561 22.5233 14.4467 22.527C14.5912 22.5278 14.7344 22.5025 14.8682 22.4525C15.0019 22.4025 15.1236 22.3289 15.2261 22.2359L24.5677 13.6928C24.6695 13.599 24.75 13.4877 24.8046 13.3654C24.8592 13.2431 24.8869 13.1121 24.8861 12.98C24.8793 12.7177 24.7658 12.4671 24.5677 12.2773V12.2773ZM14.4467 20.1177L5.1271 11.5846V6.37442L7.21277 4.46703H12.899L22.2296 12.9901L14.4467 20.1177Z" fill="#FBCB39"/>
</svg>
