<svg width="28" height="25" viewBox="0 0 28 25" fill="none" xmlns="http://www.w3.org/2000/svg">
<path d="M8.42026 6.47456C8.20315 6.47456 7.99092 6.53344 7.8104 6.64375C7.62988 6.75406 7.48918 6.91085 7.4061 7.09428C7.32301 7.27772 7.30128 7.47957 7.34363 7.6743C7.38599 7.86904 7.49054 8.04792 7.64405 8.18831C7.79757 8.32871 7.99317 8.42432 8.2061 8.46306C8.41904 8.50179 8.63976 8.48191 8.84034 8.40593C9.04092 8.32995 9.21236 8.20127 9.33298 8.03619C9.4536 7.8711 9.51798 7.67701 9.51798 7.47845C9.51798 7.21221 9.40233 6.95686 9.19646 6.7686C8.9906 6.58033 8.71139 6.47456 8.42026 6.47456ZM24.5677 12.2771L14.1613 2.78025C14.059 2.67932 13.935 2.59872 13.7972 2.54345C13.6593 2.48819 13.5105 2.45944 13.36 2.459H6.77368C6.62921 2.45824 6.486 2.48356 6.35226 2.53352C6.21851 2.58348 6.09687 2.65709 5.9943 2.75013L3.25 5.24982C3.14826 5.34362 3.06777 5.45487 3.01314 5.57718C2.95851 5.69949 2.93082 5.83046 2.93166 5.96258V11.9859C2.9357 12.2517 3.04941 12.5063 3.25 12.6987L13.6674 22.2356C13.8777 22.4191 14.1561 22.5231 14.4467 22.5268C14.5912 22.5275 14.7344 22.5022 14.8682 22.4523C15.0019 22.4023 15.1236 22.3287 15.2261 22.2356L24.5677 13.6925C24.6695 13.5987 24.75 13.4875 24.8046 13.3652C24.8592 13.2429 24.8869 13.1119 24.8861 12.9798C24.8793 12.7175 24.7658 12.4669 24.5677 12.2771V12.2771ZM14.4467 20.1174L5.1271 11.5844V6.37417L7.21277 4.46678H12.899L22.2296 12.9898L14.4467 20.1174Z" fill="#FBCB39"/>
</svg>
