<svg width="28" height="25" viewBox="0 0 28 25" fill="none" xmlns="http://www.w3.org/2000/svg">
<path d="M21.593 7.75872H18.2998V6.75482C18.2998 5.68983 17.8372 4.66845 17.0138 3.91539C16.1903 3.16233 15.0735 2.73926 13.909 2.73926C12.7444 2.73926 11.6276 3.16233 10.8041 3.91539C9.98069 4.66845 9.51808 5.68983 9.51808 6.75482V7.75872H6.22492C5.93378 7.75872 5.65457 7.86448 5.44871 8.05275C5.24285 8.24102 5.1272 8.49636 5.1272 8.76261V19.8054C5.1272 20.6042 5.47415 21.3702 6.09174 21.935C6.70933 22.4998 7.54696 22.8171 8.42036 22.8171H19.3976C20.271 22.8171 21.1086 22.4998 21.7262 21.935C22.3438 21.3702 22.6907 20.6042 22.6907 19.8054V8.76261C22.6907 8.49636 22.5751 8.24102 22.3692 8.05275C22.1633 7.86448 21.8841 7.75872 21.593 7.75872ZM11.7135 6.75482C11.7135 6.22233 11.9448 5.71164 12.3565 5.33511C12.7683 4.95857 13.3267 4.74704 13.909 4.74704C14.4912 4.74704 15.0496 4.95857 15.4614 5.33511C15.8731 5.71164 16.1044 6.22233 16.1044 6.75482V7.75872H11.7135V6.75482ZM20.4953 19.8054C20.4953 20.0717 20.3796 20.327 20.1738 20.5153C19.9679 20.7035 19.6887 20.8093 19.3976 20.8093H8.42036C8.12922 20.8093 7.85001 20.7035 7.64415 20.5153C7.43829 20.327 7.32264 20.0717 7.32264 19.8054V9.7665H9.51808V10.7704C9.51808 11.0366 9.63373 11.292 9.83959 11.4802C10.0455 11.6685 10.3247 11.7743 10.6158 11.7743C10.9069 11.7743 11.1861 11.6685 11.392 11.4802C11.5979 11.292 11.7135 11.0366 11.7135 10.7704V9.7665H16.1044V10.7704C16.1044 11.0366 16.22 11.292 16.4259 11.4802C16.6318 11.6685 16.911 11.7743 17.2021 11.7743C17.4932 11.7743 17.7725 11.6685 17.9783 11.4802C18.1842 11.292 18.2998 11.0366 18.2998 10.7704V9.7665H20.4953V19.8054Z" fill="#FBCB39"/>
</svg>
