<svg width="28" height="25" viewBox="0 0 28 25" fill="none" xmlns="http://www.w3.org/2000/svg">
<path d="M17.3976 12.6419C17.3976 12.8404 17.4619 13.0345 17.5826 13.1996C17.7032 13.3647 17.8746 13.4934 18.0752 13.5694C18.2758 13.6454 18.4965 13.6652 18.7094 13.6265C18.9224 13.5878 19.118 13.4921 19.2715 13.3518C19.425 13.2114 19.5295 13.0325 19.5719 12.8377C19.6143 12.643 19.5925 12.4412 19.5094 12.2577C19.4264 12.0743 19.2857 11.9175 19.1051 11.8072C18.9246 11.6969 18.7124 11.638 18.4953 11.638C18.2041 11.638 17.9249 11.7438 17.7191 11.932C17.5132 12.1203 17.3976 12.3756 17.3976 12.6419ZM24.7633 11.9291L19.2747 6.90968C19.1721 6.81663 19.0504 6.74302 18.9167 6.69306C18.783 6.64311 18.6397 6.61778 18.4953 6.61855H6.42036C5.54696 6.61855 4.70933 6.93585 4.09174 7.50065C3.47415 8.06544 3.1272 8.83147 3.1272 9.63022V15.6536C3.1272 16.4523 3.47415 17.2183 4.09174 17.7831C4.70933 18.3479 5.54696 18.6652 6.42036 18.6652H18.4953C18.6397 18.666 18.783 18.6407 18.9167 18.5907C19.0504 18.5408 19.1721 18.4672 19.2747 18.3741L24.7633 13.3547C24.8661 13.2613 24.9478 13.1503 25.0035 13.028C25.0593 12.9056 25.088 12.7744 25.088 12.6419C25.088 12.5094 25.0593 12.3782 25.0035 12.2558C24.9478 12.1335 24.8661 12.0225 24.7633 11.9291ZM18.0452 16.6575H6.42036C6.12922 16.6575 5.85001 16.5517 5.64415 16.3634C5.43829 16.1752 5.32264 15.9198 5.32264 15.6536V9.63022C5.32264 9.36397 5.43829 9.10863 5.64415 8.92036C5.85001 8.7321 6.12922 8.62633 6.42036 8.62633H18.0452L22.4361 12.6419L18.0452 16.6575Z" fill="#FBCB39"/>
</svg>
