<svg width="28" height="25" viewBox="0 0 28 25" fill="none" xmlns="http://www.w3.org/2000/svg">
<path d="M17.3974 12.642C17.3974 12.8406 17.4618 13.0347 17.5824 13.1997C17.7031 13.3648 17.8745 13.4935 18.0751 13.5695C18.2757 13.6455 18.4964 13.6654 18.7093 13.6266C18.9222 13.5879 19.1178 13.4923 19.2714 13.3519C19.4249 13.2115 19.5294 13.0326 19.5718 12.8379C19.6141 12.6431 19.5924 12.4413 19.5093 12.2578C19.4262 12.0744 19.2855 11.9176 19.105 11.8073C18.9245 11.697 18.7123 11.6381 18.4952 11.6381C18.204 11.6381 17.9248 11.7439 17.7189 11.9322C17.5131 12.1204 17.3974 12.3758 17.3974 12.642ZM24.7631 11.9293L19.2745 6.9098C19.172 6.81676 19.0503 6.74314 18.9166 6.69319C18.7828 6.64323 18.6396 6.61791 18.4952 6.61867H6.42023C5.54683 6.61867 4.70921 6.93597 4.09162 7.50077C3.47403 8.06557 3.12708 8.8316 3.12708 9.63034V15.6537C3.12708 16.4524 3.47403 17.2185 4.09162 17.7833C4.70921 18.3481 5.54683 18.6654 6.42023 18.6654H18.4952C18.6396 18.6661 18.7828 18.6408 18.9166 18.5908C19.0503 18.5409 19.172 18.4673 19.2745 18.3742L24.7631 13.3548C24.866 13.2615 24.9477 13.1504 25.0034 13.0281C25.0591 12.9058 25.0878 12.7745 25.0878 12.642C25.0878 12.5095 25.0591 12.3783 25.0034 12.2559C24.9477 12.1336 24.866 12.0226 24.7631 11.9293ZM18.0451 16.6576H6.42023C6.1291 16.6576 5.84989 16.5518 5.64403 16.3635C5.43817 16.1753 5.32252 15.9199 5.32252 15.6537V9.63034C5.32252 9.36409 5.43817 9.10875 5.64403 8.92048C5.84989 8.73222 6.1291 8.62645 6.42023 8.62645H18.0451L22.436 12.642L18.0451 16.6576Z" fill="#FBCB39"/>
</svg>
