<svg width="28" height="25" viewBox="0 0 28 25" fill="none" xmlns="http://www.w3.org/2000/svg">
<path d="M8.42014 6.47456C8.20303 6.47456 7.9908 6.53344 7.81028 6.64375C7.62976 6.75406 7.48906 6.91085 7.40598 7.09428C7.32289 7.27772 7.30115 7.47957 7.34351 7.6743C7.38587 7.86904 7.49041 8.04792 7.64393 8.18831C7.79745 8.32871 7.99305 8.42432 8.20598 8.46306C8.41892 8.50179 8.63963 8.48191 8.84022 8.40593C9.0408 8.32995 9.21224 8.20127 9.33286 8.03619C9.45348 7.8711 9.51786 7.67701 9.51786 7.47845C9.51786 7.21221 9.4022 6.95686 9.19634 6.7686C8.99048 6.58033 8.71127 6.47456 8.42014 6.47456ZM24.5676 12.2771L14.1612 2.78025C14.0589 2.67932 13.9349 2.59872 13.7971 2.54345C13.6592 2.48819 13.5104 2.45944 13.3599 2.459H6.77356C6.62909 2.45824 6.48588 2.48356 6.35214 2.53352C6.21839 2.58348 6.09675 2.65709 5.99418 2.75013L3.24988 5.24982C3.14814 5.34362 3.06765 5.45487 3.01302 5.57718C2.95839 5.69949 2.9307 5.83046 2.93154 5.96258V11.9859C2.93558 12.2517 3.04929 12.5063 3.24988 12.6987L13.6672 22.2356C13.8776 22.4191 14.156 22.5231 14.4466 22.5268C14.5911 22.5275 14.7343 22.5022 14.868 22.4523C15.0018 22.4023 15.1234 22.3287 15.226 22.2356L24.5676 13.6925C24.6693 13.5987 24.7498 13.4875 24.8045 13.3652C24.8591 13.2429 24.8868 13.1119 24.8859 12.9798C24.8792 12.7175 24.7656 12.4669 24.5676 12.2771V12.2771ZM14.4466 20.1174L5.12698 11.5844V6.37417L7.21265 4.46678H12.8988L22.2295 12.9898L14.4466 20.1174Z" fill="#FBCB39"/>
</svg>
