<svg width="28" height="25" viewBox="0 0 28 25" fill="none" xmlns="http://www.w3.org/2000/svg">
<path d="M21.5928 7.75872H18.2996V6.75482C18.2996 5.68983 17.837 4.66845 17.0135 3.91539C16.1901 3.16233 15.0732 2.73926 13.9087 2.73926C12.7442 2.73926 11.6273 3.16233 10.8039 3.91539C9.98044 4.66845 9.51783 5.68983 9.51783 6.75482V7.75872H6.22467C5.93354 7.75872 5.65433 7.86448 5.44847 8.05275C5.24261 8.24102 5.12695 8.49636 5.12695 8.76261V19.8054C5.12695 20.6042 5.47391 21.3702 6.0915 21.935C6.70908 22.4998 7.54671 22.8171 8.42011 22.8171H19.3973C20.2707 22.8171 21.1083 22.4998 21.7259 21.935C22.3435 21.3702 22.6905 20.6042 22.6905 19.8054V8.76261C22.6905 8.49636 22.5748 8.24102 22.369 8.05275C22.1631 7.86448 21.8839 7.75872 21.5928 7.75872ZM11.7133 6.75482C11.7133 6.22233 11.9446 5.71164 12.3563 5.33511C12.768 4.95857 13.3264 4.74704 13.9087 4.74704C14.491 4.74704 15.0494 4.95857 15.4611 5.33511C15.8728 5.71164 16.1042 6.22233 16.1042 6.75482V7.75872H11.7133V6.75482ZM20.495 19.8054C20.495 20.0717 20.3794 20.327 20.1735 20.5153C19.9677 20.7035 19.6884 20.8093 19.3973 20.8093H8.42011C8.12898 20.8093 7.84977 20.7035 7.64391 20.5153C7.43805 20.327 7.32239 20.0717 7.32239 19.8054V9.7665H9.51783V10.7704C9.51783 11.0366 9.63349 11.292 9.83935 11.4802C10.0452 11.6685 10.3244 11.7743 10.6156 11.7743C10.9067 11.7743 11.1859 11.6685 11.3918 11.4802C11.5976 11.292 11.7133 11.0366 11.7133 10.7704V9.7665H16.1042V10.7704C16.1042 11.0366 16.2198 11.292 16.4257 11.4802C16.6315 11.6685 16.9107 11.7743 17.2019 11.7743C17.493 11.7743 17.7722 11.6685 17.9781 11.4802C18.1839 11.292 18.2996 11.0366 18.2996 10.7704V9.7665H20.495V19.8054Z" fill="#FBCB39"/>
</svg>
