<svg width="28" height="25" viewBox="0 0 28 25" fill="none" xmlns="http://www.w3.org/2000/svg">
<path d="M21.5929 7.75872H18.2997V6.75482C18.2997 5.68983 17.8371 4.66845 17.0137 3.91539C16.1902 3.16233 15.0734 2.73926 13.9088 2.73926C12.7443 2.73926 11.6275 3.16233 10.804 3.91539C9.98056 4.66845 9.51795 5.68983 9.51795 6.75482V7.75872H6.2248C5.93366 7.75872 5.65445 7.86448 5.44859 8.05275C5.24273 8.24102 5.12708 8.49636 5.12708 8.76261V19.8054C5.12708 20.6042 5.47403 21.3702 6.09162 21.935C6.70921 22.4998 7.54683 22.8171 8.42023 22.8171H19.3974C20.2708 22.8171 21.1085 22.4998 21.726 21.935C22.3436 21.3702 22.6906 20.6042 22.6906 19.8054V8.76261C22.6906 8.49636 22.5749 8.24102 22.3691 8.05275C22.1632 7.86448 21.884 7.75872 21.5929 7.75872ZM11.7134 6.75482C11.7134 6.22233 11.9447 5.71164 12.3564 5.33511C12.7681 4.95857 13.3266 4.74704 13.9088 4.74704C14.4911 4.74704 15.0495 4.95857 15.4612 5.33511C15.873 5.71164 16.1043 6.22233 16.1043 6.75482V7.75872H11.7134V6.75482ZM20.4952 19.8054C20.4952 20.0717 20.3795 20.327 20.1736 20.5153C19.9678 20.7035 19.6886 20.8093 19.3974 20.8093H8.42023C8.1291 20.8093 7.84989 20.7035 7.64403 20.5153C7.43817 20.327 7.32252 20.0717 7.32252 19.8054V9.7665H9.51795V10.7704C9.51795 11.0366 9.63361 11.292 9.83947 11.4802C10.0453 11.6685 10.3245 11.7743 10.6157 11.7743C10.9068 11.7743 11.186 11.6685 11.3919 11.4802C11.5977 11.292 11.7134 11.0366 11.7134 10.7704V9.7665H16.1043V10.7704C16.1043 11.0366 16.2199 11.292 16.4258 11.4802C16.6317 11.6685 16.9109 11.7743 17.202 11.7743C17.4931 11.7743 17.7723 11.6685 17.9782 11.4802C18.1841 11.292 18.2997 11.0366 18.2997 10.7704V9.7665H20.4952V19.8054Z" fill="#FBCB39"/>
</svg>
