<svg width="28" height="25" viewBox="0 0 28 25" fill="none" xmlns="http://www.w3.org/2000/svg">
<path d="M8.4202 6.47481C8.20309 6.47481 7.99086 6.53369 7.81034 6.64399C7.62982 6.7543 7.48912 6.91109 7.40604 7.09453C7.32295 7.27796 7.30121 7.47981 7.34357 7.67455C7.38593 7.86928 7.49047 8.04816 7.64399 8.18856C7.79751 8.32895 7.99311 8.42456 8.20604 8.4633C8.41898 8.50204 8.6397 8.48215 8.84028 8.40617C9.04086 8.33019 9.2123 8.20152 9.33292 8.03643C9.45354 7.87134 9.51792 7.67725 9.51792 7.4787C9.51792 7.21245 9.40227 6.95711 9.1964 6.76884C8.99054 6.58057 8.71133 6.47481 8.4202 6.47481ZM24.5677 12.2773L14.1613 2.78049C14.0589 2.67956 13.935 2.59896 13.7971 2.5437C13.6593 2.48843 13.5105 2.45969 13.3599 2.45925H6.77362C6.62915 2.45848 6.48594 2.4838 6.3522 2.53376C6.21845 2.58372 6.09681 2.65733 5.99424 2.75037L3.24994 5.25006C3.1482 5.34387 3.06771 5.45511 3.01308 5.57742C2.95845 5.69973 2.93076 5.8307 2.9316 5.96282V11.9862C2.93564 12.252 3.04935 12.5066 3.24994 12.6989L13.6673 22.2359C13.8777 22.4193 14.156 22.5233 14.4467 22.527C14.5911 22.5278 14.7344 22.5025 14.8681 22.4525C15.0018 22.4025 15.1235 22.3289 15.2261 22.2359L24.5677 13.6928C24.6694 13.599 24.7499 13.4877 24.8045 13.3654C24.8591 13.2431 24.8868 13.1121 24.886 12.98C24.8792 12.7177 24.7657 12.4671 24.5677 12.2773V12.2773ZM14.4467 20.1177L5.12704 11.5846V6.37442L7.21271 4.46703H12.8989L22.2295 12.9901L14.4467 20.1177Z" fill="#FBCB39"/>
</svg>
