<svg width="28" height="25" viewBox="0 0 28 25" fill="none" xmlns="http://www.w3.org/2000/svg">
<path d="M21.5928 7.75872H18.2997V6.75482C18.2997 5.68983 17.837 4.66845 17.0136 3.91539C16.1901 3.16233 15.0733 2.73926 13.9088 2.73926C12.7442 2.73926 11.6274 3.16233 10.804 3.91539C9.9805 4.66845 9.51789 5.68983 9.51789 6.75482V7.75872H6.22473C5.9336 7.75872 5.65439 7.86448 5.44853 8.05275C5.24267 8.24102 5.12701 8.49636 5.12701 8.76261V19.8054C5.12701 20.6042 5.47397 21.3702 6.09156 21.935C6.70915 22.4998 7.54677 22.8171 8.42017 22.8171H19.3974C20.2708 22.8171 21.1084 22.4998 21.726 21.935C22.3436 21.3702 22.6905 20.6042 22.6905 19.8054V8.76261C22.6905 8.49636 22.5749 8.24102 22.369 8.05275C22.1632 7.86448 21.8839 7.75872 21.5928 7.75872ZM11.7133 6.75482C11.7133 6.22233 11.9446 5.71164 12.3564 5.33511C12.7681 4.95857 13.3265 4.74704 13.9088 4.74704C14.491 4.74704 15.0495 4.95857 15.4612 5.33511C15.8729 5.71164 16.1042 6.22233 16.1042 6.75482V7.75872H11.7133V6.75482ZM20.4951 19.8054C20.4951 20.0717 20.3794 20.327 20.1736 20.5153C19.9677 20.7035 19.6885 20.8093 19.3974 20.8093H8.42017C8.12904 20.8093 7.84983 20.7035 7.64397 20.5153C7.43811 20.327 7.32245 20.0717 7.32245 19.8054V9.7665H9.51789V10.7704C9.51789 11.0366 9.63355 11.292 9.83941 11.4802C10.0453 11.6685 10.3245 11.7743 10.6156 11.7743C10.9067 11.7743 11.186 11.6685 11.3918 11.4802C11.5977 11.292 11.7133 11.0366 11.7133 10.7704V9.7665H16.1042V10.7704C16.1042 11.0366 16.2199 11.292 16.4257 11.4802C16.6316 11.6685 16.9108 11.7743 17.2019 11.7743C17.4931 11.7743 17.7723 11.6685 17.9781 11.4802C18.184 11.292 18.2997 11.0366 18.2997 10.7704V9.7665H20.4951V19.8054Z" fill="#FBCB39"/>
</svg>
