<svg width="28" height="25" viewBox="0 0 28 25" fill="none" xmlns="http://www.w3.org/2000/svg">
<path d="M1.93164 12.8404V17.8599C1.93164 18.1261 2.04729 18.3815 2.25316 18.5697C2.45902 18.758 2.73823 18.8638 3.02936 18.8638H4.12708C4.12708 19.6625 4.47404 20.4286 5.09162 20.9934C5.70921 21.5581 6.54684 21.8754 7.42024 21.8754C8.29364 21.8754 9.13127 21.5581 9.74885 20.9934C10.3664 20.4286 10.7134 19.6625 10.7134 18.8638H17.2997C17.2997 19.6625 17.6467 20.4286 18.2643 20.9934C18.8818 21.5581 19.7195 21.8754 20.5929 21.8754C21.4663 21.8754 22.3039 21.5581 22.9215 20.9934C23.5391 20.4286 23.886 19.6625 23.886 18.8638H24.9838C25.2749 18.8638 25.5541 18.758 25.76 18.5697C25.9658 18.3815 26.0815 18.1261 26.0815 17.8599V5.81319C26.0815 5.01444 25.7345 4.24841 25.1169 3.68361C24.4993 3.11881 23.6617 2.80151 22.7883 2.80151H12.9088C12.0354 2.80151 11.1978 3.11881 10.5802 3.68361C9.96263 4.24841 9.61568 5.01444 9.61568 5.81319V7.82097H7.42024C6.90899 7.82097 6.40477 7.92983 5.94749 8.13892C5.49022 8.34802 5.09246 8.6516 4.78571 9.02564L2.15118 12.2381C2.11908 12.2817 2.09325 12.329 2.07434 12.3786L2.00848 12.4891C1.96003 12.601 1.93401 12.72 1.93164 12.8404V12.8404ZM19.4952 18.8638C19.4952 18.6652 19.5595 18.4711 19.6802 18.306C19.8008 18.141 19.9722 18.0123 20.1728 17.9363C20.3734 17.8603 20.5941 17.8404 20.807 17.8792C21.02 17.9179 21.2156 18.0135 21.3691 18.1539C21.5226 18.2943 21.6271 18.4732 21.6695 18.6679C21.7119 18.8627 21.6901 19.0645 21.607 19.2479C21.524 19.4314 21.3833 19.5882 21.2027 19.6985C21.0222 19.8088 20.81 19.8677 20.5929 19.8677C20.3017 19.8677 20.0225 19.7619 19.8167 19.5736C19.6108 19.3854 19.4952 19.13 19.4952 18.8638ZM11.8111 5.81319C11.8111 5.54694 11.9268 5.2916 12.1326 5.10333C12.3385 4.91506 12.6177 4.8093 12.9088 4.8093H22.7883C23.0794 4.8093 23.3587 4.91506 23.5645 5.10333C23.7704 5.2916 23.886 5.54694 23.886 5.81319V16.856H23.0298C22.7212 16.5454 22.3449 16.2973 21.9253 16.1275C21.5056 15.9577 21.0518 15.87 20.5929 15.87C20.134 15.87 19.6801 15.9577 19.2605 16.1275C18.8408 16.2973 18.4646 16.5454 18.1559 16.856H11.8111V5.81319ZM9.61568 11.8365H5.2248L6.54206 10.2303C6.64431 10.1056 6.7769 10.0044 6.92932 9.93474C7.08175 9.86504 7.24982 9.82875 7.42024 9.82875H9.61568V11.8365ZM6.32252 18.8638C6.32252 18.6652 6.3869 18.4711 6.50752 18.306C6.62814 18.141 6.79958 18.0123 7.00016 17.9363C7.20074 17.8603 7.42146 17.8404 7.63439 17.8792C7.84733 17.9179 8.04292 18.0135 8.19644 18.1539C8.34996 18.2943 8.45451 18.4732 8.49687 18.6679C8.53922 18.8627 8.51748 19.0645 8.4344 19.2479C8.35132 19.4314 8.21062 19.5882 8.0301 19.6985C7.84958 19.8088 7.63735 19.8677 7.42024 19.8677C7.12911 19.8677 6.8499 19.7619 6.64403 19.5736C6.43817 19.3854 6.32252 19.13 6.32252 18.8638ZM4.12708 13.8443H9.61568V16.6351C8.96784 16.1056 8.11744 15.8317 7.24976 15.8731C6.38207 15.9145 5.56742 16.2678 4.9833 16.856H4.12708V13.8443Z" fill="#FBCB39"/>
</svg>
