<svg width="28" height="25" viewBox="0 0 28 25" fill="none" xmlns="http://www.w3.org/2000/svg">
<path d="M1.93158 12.8405V17.86C1.93158 18.1263 2.04723 18.3816 2.25309 18.5699C2.45896 18.7581 2.73817 18.8639 3.0293 18.8639H4.12702C4.12702 19.6626 4.47398 20.4287 5.09156 20.9935C5.70915 21.5583 6.54678 21.8756 7.42018 21.8756C8.29358 21.8756 9.13121 21.5583 9.74879 20.9935C10.3664 20.4287 10.7133 19.6626 10.7133 18.8639H17.2997C17.2997 19.6626 17.6466 20.4287 18.2642 20.9935C18.8818 21.5583 19.7194 21.8756 20.5928 21.8756C21.4662 21.8756 22.3038 21.5583 22.9214 20.9935C23.539 20.4287 23.886 19.6626 23.886 18.8639H24.9837C25.2748 18.8639 25.554 18.7581 25.7599 18.5699C25.9658 18.3816 26.0814 18.1263 26.0814 17.86V5.81331C26.0814 5.01456 25.7345 4.24853 25.1169 3.68373C24.4993 3.11894 23.6617 2.80164 22.7883 2.80164H12.9088C12.0354 2.80164 11.1977 3.11894 10.5802 3.68373C9.96257 4.24853 9.61562 5.01456 9.61562 5.81331V7.82109H7.42018C6.90893 7.82109 6.40471 7.92995 5.94743 8.13904C5.49016 8.34814 5.0924 8.65172 4.78565 9.02576L2.15112 12.2382C2.11902 12.2819 2.09319 12.3291 2.07428 12.3788L2.00842 12.4892C1.95997 12.6011 1.93395 12.7202 1.93158 12.8405V12.8405ZM19.4951 18.8639C19.4951 18.6653 19.5595 18.4713 19.6801 18.3062C19.8007 18.1411 19.9722 18.0124 20.1727 17.9364C20.3733 17.8604 20.594 17.8406 20.807 17.8793C21.0199 17.918 21.2155 18.0136 21.369 18.154C21.5225 18.2944 21.6271 18.4733 21.6694 18.668C21.7118 18.8628 21.6901 19.0646 21.607 19.2481C21.5239 19.4315 21.3832 19.5883 21.2027 19.6986C21.0222 19.8089 20.8099 19.8678 20.5928 19.8678C20.3017 19.8678 20.0225 19.762 19.8166 19.5738C19.6107 19.3855 19.4951 19.1301 19.4951 18.8639ZM11.8111 5.81331C11.8111 5.54706 11.9267 5.29172 12.1326 5.10345C12.3384 4.91519 12.6176 4.80942 12.9088 4.80942H22.7883C23.0794 4.80942 23.3586 4.91519 23.5645 5.10345C23.7703 5.29172 23.886 5.54706 23.886 5.81331V16.8561H23.0298C22.7211 16.5456 22.3449 16.2974 21.9252 16.1276C21.5055 15.9578 21.0517 15.8701 20.5928 15.8701C20.1339 15.8701 19.6801 15.9578 19.2604 16.1276C18.8408 16.2974 18.4645 16.5456 18.1559 16.8561H11.8111V5.81331ZM9.61562 11.8367H5.22474L6.542 10.2304C6.64425 10.1058 6.77684 10.0046 6.92926 9.93486C7.08169 9.86516 7.24976 9.82888 7.42018 9.82888H9.61562V11.8367ZM6.32246 18.8639C6.32246 18.6653 6.38684 18.4713 6.50746 18.3062C6.62808 18.1411 6.79952 18.0124 7.0001 17.9364C7.20068 17.8604 7.4214 17.8406 7.63433 17.8793C7.84727 17.918 8.04286 18.0136 8.19638 18.154C8.3499 18.2944 8.45445 18.4733 8.49681 18.668C8.53916 18.8628 8.51742 19.0646 8.43434 19.2481C8.35125 19.4315 8.21056 19.5883 8.03004 19.6986C7.84952 19.8089 7.63729 19.8678 7.42018 19.8678C7.12904 19.8678 6.84984 19.762 6.64397 19.5738C6.43811 19.3855 6.32246 19.1301 6.32246 18.8639ZM4.12702 13.8444H9.61562V16.6353C8.96778 16.1058 8.11738 15.8319 7.24969 15.8732C6.38201 15.9146 5.56736 16.2679 4.98324 16.8561H4.12702V13.8444Z" fill="#FBCB39"/>
</svg>
