<svg width="28" height="25" viewBox="0 0 28 25" fill="none" xmlns="http://www.w3.org/2000/svg">
<path d="M1.93164 12.8405V17.86C1.93164 18.1263 2.04729 18.3816 2.25316 18.5699C2.45902 18.7581 2.73823 18.8639 3.02936 18.8639H4.12708C4.12708 19.6626 4.47404 20.4287 5.09162 20.9935C5.70921 21.5583 6.54684 21.8756 7.42024 21.8756C8.29364 21.8756 9.13127 21.5583 9.74885 20.9935C10.3664 20.4287 10.7134 19.6626 10.7134 18.8639H17.2997C17.2997 19.6626 17.6467 20.4287 18.2643 20.9935C18.8818 21.5583 19.7195 21.8756 20.5929 21.8756C21.4663 21.8756 22.3039 21.5583 22.9215 20.9935C23.5391 20.4287 23.886 19.6626 23.886 18.8639H24.9838C25.2749 18.8639 25.5541 18.7581 25.76 18.5699C25.9658 18.3816 26.0815 18.1263 26.0815 17.86V5.81331C26.0815 5.01456 25.7345 4.24853 25.1169 3.68373C24.4993 3.11894 23.6617 2.80164 22.7883 2.80164H12.9088C12.0354 2.80164 11.1978 3.11894 10.5802 3.68373C9.96263 4.24853 9.61568 5.01456 9.61568 5.81331V7.82109H7.42024C6.90899 7.82109 6.40477 7.92995 5.94749 8.13904C5.49022 8.34814 5.09246 8.65172 4.78571 9.02576L2.15118 12.2382C2.11908 12.2819 2.09325 12.3291 2.07434 12.3788L2.00848 12.4892C1.96003 12.6011 1.93401 12.7202 1.93164 12.8405V12.8405ZM19.4952 18.8639C19.4952 18.6653 19.5595 18.4713 19.6802 18.3062C19.8008 18.1411 19.9722 18.0124 20.1728 17.9364C20.3734 17.8604 20.5941 17.8406 20.807 17.8793C21.02 17.918 21.2156 18.0136 21.3691 18.154C21.5226 18.2944 21.6271 18.4733 21.6695 18.668C21.7119 18.8628 21.6901 19.0646 21.607 19.2481C21.524 19.4315 21.3833 19.5883 21.2027 19.6986C21.0222 19.8089 20.81 19.8678 20.5929 19.8678C20.3017 19.8678 20.0225 19.762 19.8167 19.5738C19.6108 19.3855 19.4952 19.1301 19.4952 18.8639ZM11.8111 5.81331C11.8111 5.54706 11.9268 5.29172 12.1326 5.10345C12.3385 4.91519 12.6177 4.80942 12.9088 4.80942H22.7883C23.0794 4.80942 23.3587 4.91519 23.5645 5.10345C23.7704 5.29172 23.886 5.54706 23.886 5.81331V16.8561H23.0298C22.7212 16.5456 22.3449 16.2974 21.9253 16.1276C21.5056 15.9578 21.0518 15.8701 20.5929 15.8701C20.134 15.8701 19.6801 15.9578 19.2605 16.1276C18.8408 16.2974 18.4646 16.5456 18.1559 16.8561H11.8111V5.81331ZM9.61568 11.8367H5.2248L6.54206 10.2304C6.64431 10.1058 6.7769 10.0046 6.92932 9.93486C7.08175 9.86516 7.24982 9.82888 7.42024 9.82888H9.61568V11.8367ZM6.32252 18.8639C6.32252 18.6653 6.3869 18.4713 6.50752 18.3062C6.62814 18.1411 6.79958 18.0124 7.00016 17.9364C7.20074 17.8604 7.42146 17.8406 7.63439 17.8793C7.84733 17.918 8.04292 18.0136 8.19644 18.154C8.34996 18.2944 8.45451 18.4733 8.49687 18.668C8.53922 18.8628 8.51748 19.0646 8.4344 19.2481C8.35132 19.4315 8.21062 19.5883 8.0301 19.6986C7.84958 19.8089 7.63735 19.8678 7.42024 19.8678C7.12911 19.8678 6.8499 19.762 6.64403 19.5738C6.43817 19.3855 6.32252 19.1301 6.32252 18.8639ZM4.12708 13.8444H9.61568V16.6353C8.96784 16.1058 8.11744 15.8319 7.24976 15.8732C6.38207 15.9146 5.56742 16.2679 4.9833 16.8561H4.12708V13.8444Z" fill="#FBCB39"/>
</svg>
