<svg width="28" height="25" viewBox="0 0 28 25" fill="none" xmlns="http://www.w3.org/2000/svg">
<path d="M1.93164 12.8407V17.8601C1.93164 18.1264 2.04729 18.3817 2.25316 18.57C2.45902 18.7583 2.73823 18.864 3.02936 18.864H4.12708C4.12708 19.6628 4.47404 20.4288 5.09162 20.9936C5.70921 21.5584 6.54684 21.8757 7.42024 21.8757C8.29364 21.8757 9.13127 21.5584 9.74885 20.9936C10.3664 20.4288 10.7134 19.6628 10.7134 18.864H17.2997C17.2997 19.6628 17.6467 20.4288 18.2643 20.9936C18.8818 21.5584 19.7195 21.8757 20.5929 21.8757C21.4663 21.8757 22.3039 21.5584 22.9215 20.9936C23.5391 20.4288 23.886 19.6628 23.886 18.864H24.9838C25.2749 18.864 25.5541 18.7583 25.76 18.57C25.9658 18.3817 26.0815 18.1264 26.0815 17.8601V5.81343C26.0815 5.01469 25.7345 4.24866 25.1169 3.68386C24.4993 3.11906 23.6617 2.80176 22.7883 2.80176H12.9088C12.0354 2.80176 11.1978 3.11906 10.5802 3.68386C9.96263 4.24866 9.61568 5.01469 9.61568 5.81343V7.82121H7.42024C6.90899 7.82121 6.40477 7.93007 5.94749 8.13917C5.49022 8.34826 5.09246 8.65185 4.78571 9.02588L2.15118 12.2383C2.11908 12.282 2.09325 12.3292 2.07434 12.3789L2.00848 12.4893C1.96003 12.6013 1.93401 12.7203 1.93164 12.8407V12.8407ZM19.4952 18.864C19.4952 18.6655 19.5595 18.4714 19.6802 18.3063C19.8008 18.1412 19.9722 18.0125 20.1728 17.9365C20.3734 17.8606 20.5941 17.8407 20.807 17.8794C21.02 17.9182 21.2156 18.0138 21.3691 18.1542C21.5226 18.2946 21.6271 18.4734 21.6695 18.6682C21.7119 18.8629 21.6901 19.0648 21.607 19.2482C21.524 19.4316 21.3833 19.5884 21.2027 19.6987C21.0222 19.809 20.81 19.8679 20.5929 19.8679C20.3017 19.8679 20.0225 19.7621 19.8167 19.5739C19.6108 19.3856 19.4952 19.1303 19.4952 18.864ZM11.8111 5.81343C11.8111 5.54718 11.9268 5.29184 12.1326 5.10357C12.3385 4.91531 12.6177 4.80954 12.9088 4.80954H22.7883C23.0794 4.80954 23.3587 4.91531 23.5645 5.10357C23.7704 5.29184 23.886 5.54718 23.886 5.81343V16.8562H23.0298C22.7212 16.5457 22.3449 16.2975 21.9253 16.1277C21.5056 15.9579 21.0518 15.8702 20.5929 15.8702C20.134 15.8702 19.6801 15.9579 19.2605 16.1277C18.8408 16.2975 18.4646 16.5457 18.1559 16.8562H11.8111V5.81343ZM9.61568 11.8368H5.2248L6.54206 10.2306C6.64431 10.1059 6.7769 10.0047 6.92932 9.93498C7.08175 9.86528 7.24982 9.829 7.42024 9.829H9.61568V11.8368ZM6.32252 18.864C6.32252 18.6655 6.3869 18.4714 6.50752 18.3063C6.62814 18.1412 6.79958 18.0125 7.00016 17.9365C7.20074 17.8606 7.42146 17.8407 7.63439 17.8794C7.84733 17.9182 8.04292 18.0138 8.19644 18.1542C8.34996 18.2946 8.45451 18.4734 8.49687 18.6682C8.53922 18.8629 8.51748 19.0648 8.4344 19.2482C8.35132 19.4316 8.21062 19.5884 8.0301 19.6987C7.84958 19.809 7.63735 19.8679 7.42024 19.8679C7.12911 19.8679 6.8499 19.7621 6.64403 19.5739C6.43817 19.3856 6.32252 19.1303 6.32252 18.864ZM4.12708 13.8446H9.61568V16.6354C8.96784 16.1059 8.11744 15.832 7.24976 15.8733C6.38207 15.9147 5.56742 16.268 4.9833 16.8562H4.12708V13.8446Z" fill="#FBCB39"/>
</svg>
