<svg width="28" height="25" viewBox="0 0 28 25" fill="none" xmlns="http://www.w3.org/2000/svg">
<path d="M1.9317 12.8407V17.8601C1.9317 18.1264 2.04735 18.3817 2.25322 18.57C2.45908 18.7583 2.73829 18.864 3.02942 18.864H4.12714C4.12714 19.6628 4.4741 20.4288 5.09169 20.9936C5.70927 21.5584 6.5469 21.8757 7.4203 21.8757C8.2937 21.8757 9.13133 21.5584 9.74892 20.9936C10.3665 20.4288 10.7135 19.6628 10.7135 18.864H17.2998C17.2998 19.6628 17.6467 20.4288 18.2643 20.9936C18.8819 21.5584 19.7195 21.8757 20.5929 21.8757C21.4663 21.8757 22.304 21.5584 22.9216 20.9936C23.5391 20.4288 23.8861 19.6628 23.8861 18.864H24.9838C25.2749 18.864 25.5542 18.7583 25.76 18.57C25.9659 18.3817 26.0815 18.1264 26.0815 17.8601V5.81343C26.0815 5.01469 25.7346 4.24866 25.117 3.68386C24.4994 3.11906 23.6618 2.80176 22.7884 2.80176H12.9089C12.0355 2.80176 11.1979 3.11906 10.5803 3.68386C9.9627 4.24866 9.61574 5.01469 9.61574 5.81343V7.82121H7.4203C6.90905 7.82121 6.40483 7.93007 5.94755 8.13917C5.49028 8.34826 5.09252 8.65185 4.78577 9.02588L2.15125 12.2383C2.11914 12.282 2.09331 12.3292 2.07441 12.3789L2.00854 12.4893C1.9601 12.6013 1.93407 12.7203 1.9317 12.8407V12.8407ZM19.4952 18.864C19.4952 18.6655 19.5596 18.4714 19.6802 18.3063C19.8008 18.1412 19.9723 18.0125 20.1729 17.9365C20.3734 17.8606 20.5942 17.8407 20.8071 17.8794C21.02 17.9182 21.2156 18.0138 21.3691 18.1542C21.5227 18.2946 21.6272 18.4734 21.6696 18.6682C21.7119 18.8629 21.6902 19.0648 21.6071 19.2482C21.524 19.4316 21.3833 19.5884 21.2028 19.6987C21.0223 19.809 20.81 19.8679 20.5929 19.8679C20.3018 19.8679 20.0226 19.7621 19.8167 19.5739C19.6109 19.3856 19.4952 19.1303 19.4952 18.864ZM11.8112 5.81343C11.8112 5.54718 11.9268 5.29184 12.1327 5.10357C12.3386 4.91531 12.6178 4.80954 12.9089 4.80954H22.7884C23.0795 4.80954 23.3587 4.91531 23.5646 5.10357C23.7704 5.29184 23.8861 5.54718 23.8861 5.81343V16.8562H23.0299C22.7212 16.5457 22.345 16.2975 21.9253 16.1277C21.5057 15.9579 21.0518 15.8702 20.5929 15.8702C20.134 15.8702 19.6802 15.9579 19.2605 16.1277C18.8409 16.2975 18.4647 16.5457 18.156 16.8562H11.8112V5.81343ZM9.61574 11.8368H5.22486L6.54212 10.2306C6.64437 10.1059 6.77696 10.0047 6.92938 9.93498C7.08181 9.86528 7.24988 9.829 7.4203 9.829H9.61574V11.8368ZM6.32258 18.864C6.32258 18.6655 6.38696 18.4714 6.50758 18.3063C6.6282 18.1412 6.79964 18.0125 7.00022 17.9365C7.2008 17.8606 7.42152 17.8407 7.63445 17.8794C7.84739 17.9182 8.04299 18.0138 8.1965 18.1542C8.35002 18.2946 8.45457 18.4734 8.49693 18.6682C8.53928 18.8629 8.51754 19.0648 8.43446 19.2482C8.35138 19.4316 8.21068 19.5884 8.03016 19.6987C7.84964 19.809 7.63741 19.8679 7.4203 19.8679C7.12917 19.8679 6.84996 19.7621 6.6441 19.5739C6.43823 19.3856 6.32258 19.1303 6.32258 18.864ZM4.12714 13.8446H9.61574V16.6354C8.9679 16.1059 8.1175 15.832 7.24982 15.8733C6.38213 15.9147 5.56748 16.268 4.98336 16.8562H4.12714V13.8446Z" fill="#FBCB39"/>
</svg>
