<svg width="13" height="15" viewBox="0 0 13 15" fill="none" xmlns="http://www.w3.org/2000/svg">
<path d="M5.08333 11.7498C5.27119 11.7498 5.45136 11.6752 5.5842 11.5424C5.71704 11.4095 5.79167 11.2294 5.79167 11.0415V6.7915C5.79167 6.60364 5.71704 6.42348 5.5842 6.29064C5.45136 6.1578 5.27119 6.08317 5.08333 6.08317C4.89547 6.08317 4.7153 6.1578 4.58247 6.29064C4.44963 6.42348 4.375 6.60364 4.375 6.7915V11.0415C4.375 11.2294 4.44963 11.4095 4.58247 11.5424C4.7153 11.6752 4.89547 11.7498 5.08333 11.7498ZM12.1667 3.24984H9.33333V2.5415C9.33333 1.97792 9.10945 1.43742 8.71094 1.0389C8.31242 0.640387 7.77192 0.416504 7.20833 0.416504H5.79167C5.22808 0.416504 4.68758 0.640387 4.28906 1.0389C3.89055 1.43742 3.66667 1.97792 3.66667 2.5415V3.24984H0.833333C0.645472 3.24984 0.465304 3.32447 0.332466 3.4573C0.199628 3.59014 0.125 3.77031 0.125 3.95817C0.125 4.14603 0.199628 4.3262 0.332466 4.45904C0.465304 4.59188 0.645472 4.6665 0.833333 4.6665H1.54167V12.4582C1.54167 13.0218 1.76555 13.5623 2.16406 13.9608C2.56258 14.3593 3.10308 14.5832 3.66667 14.5832H9.33333C9.89692 14.5832 10.4374 14.3593 10.8359 13.9608C11.2345 13.5623 11.4583 13.0218 11.4583 12.4582V4.6665H12.1667C12.3545 4.6665 12.5347 4.59188 12.6675 4.45904C12.8004 4.3262 12.875 4.14603 12.875 3.95817C12.875 3.77031 12.8004 3.59014 12.6675 3.4573C12.5347 3.32447 12.3545 3.24984 12.1667 3.24984ZM5.08333 2.5415C5.08333 2.35364 5.15796 2.17348 5.2908 2.04064C5.42364 1.9078 5.6038 1.83317 5.79167 1.83317H7.20833C7.39619 1.83317 7.57636 1.9078 7.7092 2.04064C7.84204 2.17348 7.91667 2.35364 7.91667 2.5415V3.24984H5.08333V2.5415ZM10.0417 12.4582C10.0417 12.646 9.96704 12.8262 9.8342 12.959C9.70136 13.0919 9.52119 13.1665 9.33333 13.1665H3.66667C3.4788 13.1665 3.29864 13.0919 3.1658 12.959C3.03296 12.8262 2.95833 12.646 2.95833 12.4582V4.6665H10.0417V12.4582ZM7.91667 11.7498C8.10453 11.7498 8.2847 11.6752 8.41753 11.5424C8.55037 11.4095 8.625 11.2294 8.625 11.0415V6.7915C8.625 6.60364 8.55037 6.42348 8.41753 6.29064C8.2847 6.1578 8.10453 6.08317 7.91667 6.08317C7.7288 6.08317 7.54864 6.1578 7.4158 6.29064C7.28296 6.42348 7.20833 6.60364 7.20833 6.7915V11.0415C7.20833 11.2294 7.28296 11.4095 7.4158 11.5424C7.54864 11.6752 7.7288 11.7498 7.91667 11.7498Z" fill="white"/>
</svg>
