<svg width="49" height="39" viewBox="0 0 49 39" fill="none" xmlns="http://www.w3.org/2000/svg">
<path d="M0.0292969 20.4657V30.313C0.0292969 30.8353 0.260601 31.3363 0.672326 31.7056C1.08405 32.075 1.64247 32.2824 2.22474 32.2824H4.42018C4.42018 33.8495 5.11409 35.3523 6.34926 36.4603C7.58444 37.5684 9.25969 38.1908 11.0065 38.1908C12.7533 38.1908 14.4286 37.5684 15.6637 36.4603C16.8989 35.3523 17.5928 33.8495 17.5928 32.2824H30.7655C30.7655 33.8495 31.4594 35.3523 32.6945 36.4603C33.9297 37.5684 35.605 38.1908 37.3518 38.1908C39.0986 38.1908 40.7738 37.5684 42.009 36.4603C43.2442 35.3523 43.9381 33.8495 43.9381 32.2824H46.1335C46.7158 32.2824 47.2742 32.075 47.6859 31.7056C48.0977 31.3363 48.329 30.8353 48.329 30.313V6.67939C48.329 5.11239 47.6351 3.60957 46.3999 2.50153C45.1647 1.39349 43.4894 0.770996 41.7426 0.770996H21.9837C20.2369 0.770996 18.5616 1.39349 17.3265 2.50153C16.0913 3.60957 15.3974 5.11239 15.3974 6.67939V10.6183H11.0065C9.984 10.6183 8.97555 10.8319 8.061 11.2421C7.14646 11.6523 6.35094 12.2479 5.73744 12.9817L0.468385 19.284C0.404171 19.3696 0.352519 19.4623 0.314704 19.5597L0.182978 19.7763C0.0860842 19.996 0.0340281 20.2295 0.0292969 20.4657V20.4657ZM35.1563 32.2824C35.1563 31.8929 35.2851 31.5121 35.5263 31.1883C35.7676 30.8644 36.1104 30.612 36.5116 30.4629C36.9128 30.3138 37.3542 30.2748 37.7801 30.3508C38.206 30.4268 38.5971 30.6144 38.9042 30.8898C39.2112 31.1653 39.4203 31.5162 39.505 31.8982C39.5897 32.2803 39.5463 32.6763 39.3801 33.0361C39.2139 33.396 38.9325 33.7036 38.5715 33.92C38.2105 34.1364 37.786 34.2519 37.3518 34.2519C36.7695 34.2519 36.2111 34.0444 35.7994 33.6751C35.3876 33.3057 35.1563 32.8048 35.1563 32.2824ZM19.7883 6.67939C19.7883 6.15706 20.0196 5.65612 20.4313 5.28677C20.843 4.91742 21.4014 4.70993 21.9837 4.70993H41.7426C42.3249 4.70993 42.8833 4.91742 43.2951 5.28677C43.7068 5.65612 43.9381 6.15706 43.9381 6.67939V28.3435H42.2256C41.6083 27.7343 40.8559 27.2475 40.0166 26.9143C39.1772 26.5812 38.2696 26.4091 37.3518 26.4091C36.434 26.4091 35.5263 26.5812 34.687 26.9143C33.8477 27.2475 33.0952 27.7343 32.4779 28.3435H19.7883V6.67939ZM15.3974 18.4962H6.61562L9.25014 15.345C9.45464 15.1004 9.71982 14.9019 10.0247 14.7652C10.3295 14.6284 10.6657 14.5573 11.0065 14.5573H15.3974V18.4962ZM8.81106 32.2824C8.81106 31.8929 8.93982 31.5121 9.18105 31.1883C9.42229 30.8644 9.76517 30.612 10.1663 30.4629C10.5675 30.3138 11.0089 30.2748 11.4348 30.3508C11.8607 30.4268 12.2519 30.6144 12.5589 30.8898C12.8659 31.1653 13.075 31.5162 13.1597 31.8982C13.2445 32.2803 13.201 32.6763 13.0348 33.0361C12.8686 33.396 12.5873 33.7036 12.2262 33.92C11.8652 34.1364 11.4407 34.2519 11.0065 34.2519C10.4242 34.2519 9.86581 34.0444 9.45408 33.6751C9.04236 33.3057 8.81106 32.8048 8.81106 32.2824ZM4.42018 22.4351H15.3974V27.9102C14.1017 26.8715 12.4009 26.3341 10.6655 26.4153C8.93016 26.4964 7.30086 27.1895 6.13262 28.3435H4.42018V22.4351Z" fill="#FBCB39"/>
</svg>
