<svg width="23" height="13" viewBox="0 0 23 13" fill="none" xmlns="http://www.w3.org/2000/svg">
<path d="M14.3974 6.64202C14.3974 6.84057 14.4618 7.03466 14.5824 7.19975C14.7031 7.36484 14.8745 7.49351 15.0751 7.56949C15.2757 7.64547 15.4964 7.66535 15.7093 7.62662C15.9222 7.58788 16.1178 7.49227 16.2714 7.35187C16.4249 7.21148 16.5294 7.0326 16.5718 6.83787C16.6141 6.64313 16.5924 6.44128 16.5093 6.25784C16.4262 6.07441 16.2855 5.91762 16.105 5.80731C15.9245 5.697 15.7123 5.63812 15.4952 5.63812C15.204 5.63812 14.9248 5.74389 14.7189 5.93216C14.5131 6.12042 14.3974 6.37577 14.3974 6.64202ZM21.7631 5.92925L16.2745 0.909798C16.172 0.816756 16.0503 0.743145 15.9166 0.693187C15.7828 0.643228 15.6396 0.617905 15.4952 0.618669H3.42023C2.54683 0.618669 1.70921 0.93597 1.09162 1.50077C0.474032 2.06557 0.127075 2.8316 0.127075 3.63034V9.65369C0.127075 10.4524 0.474032 11.2185 1.09162 11.7833C1.70921 12.3481 2.54683 12.6654 3.42023 12.6654H15.4952C15.6396 12.6661 15.7828 12.6408 15.9166 12.5908C16.0503 12.5409 16.172 12.4673 16.2745 12.3742L21.7631 7.35478C21.866 7.26145 21.9477 7.15042 22.0034 7.02809C22.0591 6.90576 22.0878 6.77454 22.0878 6.64202C22.0878 6.50949 22.0591 6.37828 22.0034 6.25594C21.9477 6.13361 21.866 6.02258 21.7631 5.92925ZM15.0451 10.6576H3.42023C3.1291 10.6576 2.84989 10.5518 2.64403 10.3635C2.43817 10.1753 2.32252 9.91994 2.32252 9.65369V3.63034C2.32252 3.36409 2.43817 3.10875 2.64403 2.92048C2.84989 2.73222 3.1291 2.62645 3.42023 2.62645H15.0451L19.436 6.64202L15.0451 10.6576Z" fill="#FBCB39"/>
</svg>
