<svg width="45" height="41" viewBox="0 0 45 41" fill="none" xmlns="http://www.w3.org/2000/svg">
<path d="M11.8339 8.65282C11.3997 8.65282 10.9752 8.76838 10.6142 8.9849C10.2531 9.20142 9.97174 9.50916 9.80558 9.86921C9.63941 10.2293 9.59593 10.6255 9.68064 11.0077C9.76536 11.3899 9.97445 11.741 10.2815 12.0166C10.5885 12.2922 10.9797 12.4798 11.4056 12.5559C11.8315 12.6319 12.2729 12.5929 12.674 12.4437C13.0752 12.2946 13.4181 12.042 13.6593 11.718C13.9006 11.394 14.0293 11.013 14.0293 10.6233C14.0293 10.1007 13.798 9.59948 13.3863 9.22995C12.9746 8.86042 12.4162 8.65282 11.8339 8.65282ZM44.1287 20.042L23.316 1.40157C23.1113 1.20347 22.8634 1.04527 22.5877 0.936794C22.312 0.828322 22.0144 0.771898 21.7133 0.771029H8.54074C8.25181 0.76953 7.96539 0.819234 7.6979 0.917293C7.43042 1.01535 7.18713 1.15983 6.98199 1.34246L1.4934 6.24887C1.28993 6.43299 1.12895 6.65135 1.01969 6.89142C0.910436 7.1315 0.855056 7.38857 0.856726 7.64789V19.4706C0.864813 19.9923 1.09222 20.492 1.4934 20.8696L22.3281 39.5888C22.7488 39.9489 23.3055 40.153 23.8868 40.1603C24.1758 40.1618 24.4622 40.1121 24.7297 40.014C24.9971 39.916 25.2404 39.7715 25.4456 39.5888L44.1287 22.8203C44.3322 22.6362 44.4932 22.4179 44.6024 22.1778C44.7117 21.9377 44.7671 21.6806 44.7654 21.4213C44.7518 20.9065 44.5248 20.4146 44.1287 20.042V20.042ZM23.8868 35.4312L5.24759 18.6824V8.45577L9.41892 4.71192H20.7913L39.4524 21.441L23.8868 35.4312Z" fill="#FBCB39"/>
</svg>
