<svg width="50" height="28" viewBox="0 0 50 28" fill="none" xmlns="http://www.w3.org/2000/svg">
<path d="M32.2024 14.0343C32.2024 14.4644 32.3446 14.8849 32.611 15.2425C32.8773 15.6001 33.2559 15.8788 33.6989 16.0434C34.1418 16.208 34.6293 16.2511 35.0995 16.1672C35.5697 16.0832 36.0017 15.8761 36.3407 15.572C36.6797 15.2679 36.9106 14.8804 37.0041 14.4586C37.0977 14.0367 37.0496 13.5995 36.8662 13.2021C36.6827 12.8048 36.372 12.4651 35.9733 12.2262C35.5747 11.9872 35.106 11.8597 34.6266 11.8597C33.9836 11.8597 33.3671 12.0888 32.9124 12.4966C32.4578 12.9045 32.2024 13.4576 32.2024 14.0343ZM48.4684 12.4903L36.3477 1.61725C36.1212 1.4157 35.8526 1.25625 35.5572 1.14803C35.2619 1.03981 34.9456 0.984954 34.6266 0.986609H7.96112C6.03236 0.986609 4.1826 1.67394 2.81876 2.8974C1.45492 4.12086 0.688721 5.78023 0.688721 7.51046V20.5582C0.688721 22.2884 1.45492 23.9478 2.81876 25.1712C4.1826 26.3947 6.03236 27.082 7.96112 27.082H34.6266C34.9456 27.0837 35.2619 27.0288 35.5572 26.9206C35.8526 26.8124 36.1212 26.6529 36.3477 26.4514L48.4684 15.5783C48.6956 15.3761 48.8759 15.1356 48.999 14.8706C49.1221 14.6056 49.1854 14.3214 49.1854 14.0343C49.1854 13.7472 49.1221 13.463 48.999 13.198C48.8759 12.933 48.6956 12.6925 48.4684 12.4903ZM33.6327 22.7328H7.96112C7.3182 22.7328 6.70161 22.5037 6.247 22.0959C5.79238 21.688 5.53698 21.1349 5.53698 20.5582V7.51046C5.53698 6.93372 5.79238 6.3806 6.247 5.97278C6.70161 5.56496 7.3182 5.33585 7.96112 5.33585H33.6327L43.3292 14.0343L33.6327 22.7328Z" fill="#FBCB39"/>
</svg>
